<svg width="85" height="17" viewBox="0 0 85 17" fill="none" xmlns="http://www.w3.org/2000/svg">
<path d="M5.21257 1.83737C6.77932 1.83737 8.15379 2.1436 9.33598 2.75606C10.5324 3.36852 11.4511 4.24447 12.092 5.38393C12.7472 6.50914 13.0748 7.81952 13.0748 9.31505C13.0748 10.8106 12.7472 12.121 12.092 13.2462C11.4511 14.3571 10.5324 15.2189 9.33598 15.8313C8.15379 16.4438 6.77932 16.75 5.21257 16.75H-0.00043835V1.83737H5.21257ZM5.10575 14.2076C6.6725 14.2076 7.88317 13.7803 8.73776 12.9257C9.59236 12.0711 10.0197 10.8676 10.0197 9.31505C10.0197 7.76254 9.59236 6.55187 8.73776 5.68304C7.88317 4.79996 6.6725 4.35842 5.10575 4.35842H2.99063V14.2076H5.10575ZM16.8307 3.50383C16.3037 3.50383 15.8621 3.34003 15.5061 3.01244C15.1642 2.6706 14.9933 2.25042 14.9933 1.75191C14.9933 1.2534 15.1642 0.840348 15.5061 0.512754C15.8621 0.170918 16.3037 -6.52272e-07 16.8307 -6.52272e-07C17.3577 -6.52272e-07 17.7921 0.170918 18.1339 0.512754C18.49 0.840348 18.6681 1.2534 18.6681 1.75191C18.6681 2.25042 18.49 2.6706 18.1339 3.01244C17.7921 3.34003 17.3577 3.50383 16.8307 3.50383ZM18.3049 4.9139V16.75H15.3138V4.9139H18.3049ZM26.1953 13.9939L29.1864 4.9139H32.3697L27.9899 16.75H24.3579L19.9995 4.9139H23.2042L26.1953 13.9939ZM45.0526 10.5756C45.0526 11.0029 45.0241 11.3874 44.9671 11.7293H36.3144C36.3856 12.5839 36.6847 13.2533 37.2117 13.7376C37.7387 14.2218 38.3868 14.464 39.1559 14.464C40.2669 14.464 41.0574 13.9868 41.5274 13.0325H44.7535C44.4116 14.172 43.7564 15.112 42.7879 15.8527C41.8194 16.5791 40.6301 16.9423 39.22 16.9423C38.0805 16.9423 37.055 16.693 36.1435 16.1945C35.2461 15.6818 34.5411 14.9625 34.0283 14.0367C33.5298 13.1109 33.2806 12.0426 33.2806 10.832C33.2806 9.60704 33.5298 8.53167 34.0283 7.60587C34.5269 6.68006 35.2248 5.9679 36.1221 5.46939C37.0194 4.97088 38.052 4.72162 39.22 4.72162C40.3452 4.72162 41.3493 4.96375 42.2324 5.44802C43.1297 5.93229 43.8205 6.62309 44.3048 7.52041C44.8033 8.40349 45.0526 9.42187 45.0526 10.5756ZM41.9547 9.72098C41.9404 8.95185 41.6627 8.33939 41.1215 7.88361C40.5802 7.41358 39.9179 7.17857 39.1345 7.17857C38.3939 7.17857 37.7672 7.40646 37.2544 7.86224C36.7559 8.30378 36.4497 8.92336 36.3357 9.72098H41.9547ZM52.3847 16.8996C51.345 16.8996 50.4049 16.7215 49.5646 16.3654C48.7384 16.0094 48.0833 15.4966 47.599 14.8272C47.1147 14.1577 46.8655 13.3672 46.8512 12.4557H50.0559C50.0987 13.0681 50.3123 13.5524 50.6969 13.9085C51.0957 14.2646 51.6369 14.4426 52.3206 14.4426C53.0185 14.4426 53.5669 14.2788 53.9657 13.9512C54.3645 13.6094 54.5639 13.1678 54.5639 12.6266C54.5639 12.1851 54.4286 11.8219 54.158 11.537C53.8874 11.2521 53.5455 11.0314 53.1325 10.8747C52.7337 10.7038 52.1782 10.5186 51.466 10.3192C50.4975 10.0343 49.707 9.75659 49.0945 9.48597C48.4963 9.20111 47.9764 8.78093 47.5349 8.22545C47.1076 7.65572 46.894 6.90083 46.894 5.96078C46.894 5.0777 47.1147 4.30857 47.5563 3.65338C47.9978 2.99819 48.6174 2.49968 49.415 2.15784C50.2126 1.80176 51.1242 1.62372 52.1497 1.62372C53.688 1.62372 54.9342 2.00117 55.8885 2.75606C56.8571 3.4967 57.3912 4.53646 57.4909 5.87532H54.2007C54.1722 5.36256 53.9515 4.94239 53.5384 4.6148C53.1396 4.27296 52.6055 4.10204 51.936 4.10204C51.3521 4.10204 50.882 4.25159 50.526 4.5507C50.1841 4.84981 50.0132 5.28423 50.0132 5.85395C50.0132 6.25276 50.1414 6.58748 50.3978 6.8581C50.6684 7.11448 50.996 7.32812 51.3806 7.49904C51.7794 7.65572 52.3349 7.84088 53.047 8.05453C54.0156 8.33939 54.8061 8.62426 55.4185 8.90912C56.031 9.19398 56.558 9.62128 56.9995 10.191C57.441 10.7607 57.6618 11.5085 57.6618 12.4343C57.6618 13.2319 57.4553 13.9726 57.0422 14.6562C56.6292 15.3399 56.0238 15.8883 55.2262 16.3013C54.4286 16.7001 53.4814 16.8996 52.3847 16.8996ZM71.2578 10.5756C71.2578 11.0029 71.2293 11.3874 71.1724 11.7293H62.5196C62.5908 12.5839 62.89 13.2533 63.417 13.7376C63.944 14.2218 64.592 14.464 65.3611 14.464C66.4721 14.464 67.2626 13.9868 67.7326 13.0325H70.9587C70.6169 14.172 69.9617 15.112 68.9932 15.8527C68.0246 16.5791 66.8353 16.9423 65.4252 16.9423C64.2858 16.9423 63.2603 16.693 62.3487 16.1945C61.4514 15.6818 60.7464 14.9625 60.2336 14.0367C59.7351 13.1109 59.4858 12.0426 59.4858 10.832C59.4858 9.60704 59.7351 8.53167 60.2336 7.60587C60.7321 6.68006 61.43 5.9679 62.3273 5.46939C63.2247 4.97088 64.2573 4.72162 65.4252 4.72162C66.5505 4.72162 67.5546 4.96375 68.4377 5.44802C69.335 5.93229 70.0258 6.62309 70.5101 7.52041C71.0086 8.40349 71.2578 9.42187 71.2578 10.5756ZM68.1599 9.72098C68.1457 8.95185 67.868 8.33939 67.3267 7.88361C66.7855 7.41358 66.1232 7.17857 65.3398 7.17857C64.5991 7.17857 63.9724 7.40646 63.4597 7.86224C62.9612 8.30378 62.6549 8.92336 62.541 9.72098H68.1599ZM72.6719 10.7892C72.6719 9.59279 72.9069 8.53167 73.3769 7.60587C73.8612 6.68006 74.5093 5.9679 75.3211 5.46939C76.1473 4.97088 77.0659 4.72162 78.0772 4.72162C78.9603 4.72162 79.7294 4.89966 80.3846 5.25574C81.054 5.61182 81.5882 6.06048 81.987 6.60172V4.9139H84.9994V16.75H81.987V15.0195C81.6024 15.5749 81.0683 16.0378 80.3846 16.4082C79.7152 16.7642 78.9389 16.9423 78.0558 16.9423C77.0588 16.9423 76.1473 16.6859 75.3211 16.1732C74.5093 15.6604 73.8612 14.9411 73.3769 14.0153C72.9069 13.0753 72.6719 11.9999 72.6719 10.7892ZM81.987 10.832C81.987 10.1055 81.8445 9.48597 81.5597 8.97321C81.2748 8.44622 80.8902 8.04741 80.406 7.77679C79.9217 7.49192 79.4018 7.34949 78.8463 7.34949C78.2909 7.34949 77.7781 7.4848 77.3081 7.75542C76.838 8.02604 76.4535 8.42485 76.1544 8.95185C75.8695 9.4646 75.7271 10.0771 75.7271 10.7892C75.7271 11.5014 75.8695 12.1281 76.1544 12.6693C76.4535 13.1963 76.838 13.6023 77.3081 13.8871C77.7923 14.172 78.3051 14.3144 78.8463 14.3144C79.4018 14.3144 79.9217 14.1791 80.406 13.9085C80.8902 13.6236 81.2748 13.2248 81.5597 12.7121C81.8445 12.1851 81.987 11.5584 81.987 10.832Z" fill="black"/>
</svg>
