<svg width="24" height="24" viewBox="0 0 24 24" fill="none" xmlns="http://www.w3.org/2000/svg">
<circle cx="11.7495" cy="11.7495" r="11.7495" fill="white"/>
<path fill-rule="evenodd" clip-rule="evenodd" d="M11.7499 1.71729C6.20915 1.71729 1.71729 6.20915 1.71729 11.7499C1.71729 17.2906 6.20915 21.7824 11.7499 21.7824C17.2906 21.7824 21.7824 17.2906 21.7824 11.7499C21.7824 6.20915 17.2906 1.71729 11.7499 1.71729ZM16.0985 10.0534C16.1786 9.96192 16.2396 9.8553 16.2778 9.73986C16.3161 9.62442 16.3309 9.50249 16.3213 9.38125C16.3118 9.26001 16.2781 9.14191 16.2222 9.03389C16.1663 8.92587 16.0894 8.83012 15.996 8.75226C15.9025 8.6744 15.7945 8.61602 15.6782 8.58054C15.5618 8.54506 15.4396 8.53321 15.3186 8.54567C15.1976 8.55813 15.0804 8.59466 14.9737 8.65311C14.8671 8.71156 14.7732 8.79075 14.6976 8.88602L10.7758 13.5913L8.74648 11.5611C8.57446 11.3949 8.34408 11.303 8.10494 11.3051C7.8658 11.3072 7.63705 11.4031 7.46794 11.5722C7.29884 11.7413 7.20292 11.97 7.20084 12.2092C7.19877 12.4483 7.2907 12.6787 7.45683 12.8507L10.193 15.5869C10.2826 15.6764 10.3899 15.7463 10.508 15.7921C10.6262 15.8379 10.7525 15.8586 10.8791 15.8529C11.0057 15.8471 11.1296 15.8151 11.2431 15.7587C11.3566 15.7024 11.4571 15.6231 11.5383 15.5258L16.0985 10.0534Z" fill="#007AFF"/>
</svg>
