<svg width="52" height="52" viewBox="0 0 52 52" fill="none" xmlns="http://www.w3.org/2000/svg">
<path fill-rule="evenodd" clip-rule="evenodd" d="M6.40503 10.6751C6.40503 5.95854 10.2286 2.13501 14.9451 2.13501H32.7579C35.0229 2.13501 37.1951 3.03477 38.7967 4.63634L42.3341 8.17376C43.9357 9.77534 44.8354 11.9475 44.8354 14.2125V40.5654C44.8354 45.2819 41.0119 49.1055 36.2953 49.1055H14.9451C10.2286 49.1055 6.40503 45.2819 6.40503 40.5654V10.6751ZM40.5654 17.0802V40.5654C40.5654 42.9237 38.6536 44.8354 36.2953 44.8354H14.9451C12.5868 44.8354 10.6751 42.9237 10.6751 40.5654V10.6751C10.6751 8.31682 12.5868 6.40505 14.9451 6.40505H29.8903V10.6751C29.8903 14.2125 32.7579 17.0802 36.2953 17.0802H40.5654ZM40.3285 12.8101C40.1188 12.2072 39.7747 11.6531 39.3147 11.1931L35.7773 7.65572C35.3173 7.19576 34.7632 6.85158 34.1603 6.64191V10.6751C34.1603 11.8542 35.1162 12.8101 36.2953 12.8101H40.3285Z" fill="#141416"/>
<path d="M24.8029 19.3771C24.5511 19.4813 24.3152 19.6357 24.1105 19.8404L17.7054 26.2455C16.8716 27.0793 16.8716 28.4311 17.7054 29.2649C18.5392 30.0986 19.891 30.0986 20.7248 29.2649L23.4851 26.5045V36.2953C23.4851 37.4744 24.441 38.4303 25.6202 38.4303C26.7993 38.4303 27.7552 37.4744 27.7552 36.2953V26.5045L30.5155 29.2649C31.3493 30.0986 32.7011 30.0986 33.5349 29.2649C34.3687 28.4311 34.3687 27.0793 33.5349 26.2455L27.1299 19.8404C26.5008 19.2113 25.5768 19.0569 24.8029 19.3771Z" fill="#141416"/>
</svg>
