<svg width="21" height="21" viewBox="0 0 21 21" fill="none" xmlns="http://www.w3.org/2000/svg">
<path d="M1.18014e-06 2.53211C1.18014e-06 1.86055 0.260848 1.2165 0.725159 0.741639C1.18947 0.266775 1.81921 0 2.47584 0H14.63C15.2866 0 15.9164 0.266775 16.3807 0.741639C16.845 1.2165 17.1058 1.86055 17.1058 2.53211V3.69044C17.9604 3.74884 18.7614 4.13724 19.3465 4.77699C19.9315 5.41673 20.257 6.25999 20.2569 7.13595V16.804C20.2569 17.7198 19.9012 18.598 19.2681 19.2456C18.6349 19.8931 17.7762 20.2569 16.8808 20.2569H3.37975C2.48434 20.2569 1.62561 19.8931 0.992454 19.2456C0.359303 18.598 0.00360236 17.7198 0.00360236 16.804V7.13595H1.18014e-06V2.76231H0.00990448C0.00323267 2.68577 -7.17183e-05 2.60896 1.18014e-06 2.53211ZM15.7554 2.53211C15.7554 1.89678 15.2512 1.38115 14.63 1.38115H2.47584C2.17737 1.38115 1.89113 1.50241 1.68008 1.71826C1.46903 1.93411 1.35046 2.22686 1.35046 2.53211C1.35046 2.83737 1.46903 3.13012 1.68008 3.34596C1.89113 3.56181 2.17737 3.68307 2.47584 3.68307H15.7554V2.53211ZM14.1798 11.97C14.0008 11.97 13.829 12.0427 13.7024 12.1723C13.5757 12.3018 13.5046 12.4774 13.5046 12.6606C13.5046 12.8437 13.5757 13.0194 13.7024 13.1489C13.829 13.2784 14.0008 13.3511 14.1798 13.3511H16.4306C16.6097 13.3511 16.7814 13.2784 16.9081 13.1489C17.0347 13.0194 17.1058 12.8437 17.1058 12.6606C17.1058 12.4774 17.0347 12.3018 16.9081 12.1723C16.7814 12.0427 16.6097 11.97 16.4306 11.97H14.1798Z" fill="white"/>
</svg>
